<svg id="Logo_Predy" data-name="Logo Predy" xmlns="http://www.w3.org/2000/svg" viewBox="0 0 881.95 450.42"><defs><style>.cls-1{fill:#fff;}</style></defs><title>Predy_logo</title><path class="cls-1" d="M7630.76,7094.78s6.78-7.4-23.41-14.18c0,0-65.32,31.43-107.23,79.5-16.7,19.16-27.43,37.25-33.55,55.62-8.83-6.9-15.34-15.05-20.67-23-13.15-19.52-34.51-27.53-34.51-27.53,17.25-2.87,93-30.19,106.4-35.12s24.64-15.48,19.51-18.9c-1.54-1-9.76-9-18.07-5.75-15.8,6.24-58.36,12.48-97.16,4.31-19.52-4.11-41.49-16.22-45.6-19.92s-6.78-1-6.78-1-2.67,2.88,12.53,14.79c28.72,22.51,87.91,23.21,87.91,23.21a420.31,420.31,0,0,1-54.84,20.54c-30.61,9-59.09,8.56-71.07,11.09-1.46.31-3,1.67-4.34,3.45a255.25,255.25,0,0,1-39.37-30.28c2.36-4.46-3.94-5.62-3.94-5.62l-2.75-.93a217.5,217.5,0,0,1-16.57-19c0-1.61.08-3.21.11-4.82,0-2.07-2.86-3.53-6.92-4.57a175.48,175.48,0,0,1-29.75-78c-1-7.88-22.12-10.54-31.12-5.85-4.93,2.57-2.24,41.72,32.36,86.78v.11c0,.74,0,2.44-.05,5-8.24-3.88-15.4-7.81-19.67-11.33-13.35-11-11.92-26.5-9.86-34.51.66-2.59-28.66-9.43-34.31-6-2.67,1.65-5.13,11.92-1.64,19.93,3.2,7.33,14.17,23.21,30,30.81,0,0-43.33-11.5-69.22-11.5-7,0-13.12.36-16.08,3.79-2.49-1.92-6.53-3.31-9.49-4.2-6.17-1.85-21.57.3-28.35,1.85s-21.26,1.23-29.89.92a48.63,48.63,0,0,1-22.18-6.16s-2.47-11.71-8-13.56-16-.92-16-.92-21-17.25-21-54.54c0-7.39-32-3.39-31.73,2.47.91,17.32,5.55,50.83,42.21,71.48,0,0,7.07,30.31,12.34,66.73-16.14,3.2-34.06,2.13-34.06,2.13-2.16-2.16-5.39-7.86-11.25-8-3.44-.09-15.4,1.69-15.4,1.69-15.1-5.23-37.75-19.56-52.84-38.2s-11.9-34.54-14.18-37c-4.46-4.77-29.73-.46-29.42,2.93,3.37,37,21.72,51.61,36.2,62.39s54.23,23.73,54.23,23.73c3,2,7.85,10.48,13.18,21.35a14,14,0,0,0-6.09,2.22c-2.74,1.76-10.48,8.16-13.56,10.63s-12.33,9.09-20.49,8.93-15.9-4.88-27.27-15.56c-5.08-4.77-20.18,2.78-21.72,4.32s-2.77,6-.15,8.16,15.86,12.33,31.73,15.56c0,0-6.78,4.47-13.86,5.55s-38.7,2.72-52.38,4.31c-23.88,2.77-51.61,12.79-65.48,28.5s-17.85,32.26-16.48,33.43c1,.88,14.48,12,38.21,1.54,0,0,9.55-24.8,27.73-33s43.13-9.7,59.61-11.4,28.66-5.7,33.28-9.24c0,0-12.63,24-10.78,49.61.13,1.9,8,6.58,15.41,8.26-5.47,8.85-3.4,19.19,7.49,33.49,13.15,17.25,62.44,56.28,121.4,64.08s72.3-12.32,74.76-23.62-7.19-50.94-12.73-63.26-7.19-23.42-38.82-20.54c-32.45,2.94-25.68,9.65-25.68,9.65s49.94,69,34.71,82c-12,10.27-66.14-2.26-108.66-29.58s-34.5-45.19-27.73-53.41c6.57-7.95,47.25-30.81,106.2-23.41s106.91,40.26,128.58,56.69c10.28,7.79,34.31,30.6,43.76,27.52s11.38-29.51,8.42-32.45c-14.38-14.28-73.74-48.48-136-60.19S6970,7269,6940,7283.34a133.22,133.22,0,0,0-13.08,7.06c1.38-13,2.56-34.88,11.69-48.35,12.2-18,22.73-27.67,26.68-29.81,8.57,19.4,16.31,38.61,17.84,41.37,3.08,5.54,17.1.92,20.65-.46s8.16-5.86,7.55-8.48-10.79-29.42-10.79-29.42,7.54-8.3,13.08-14.62c1.26,16.79,1.53,33.06,0,46.66-.62,5.55,26.19,3.7,28.34-1.54,4.12-10,2.47-43.44-.61-78.26l38.51-18.79s-21.26,51.76-26.19,104.75c-.66,7.09,29,11.71,30.2,4.93,4.18-23,9.21-61.51,23.47-97,18.65,20,56.28,67.58,62.08,131.37.41,4.52,31.63,10.27,33.68.82,4.14-19,6.43-70.1,21.16-118.31,4.4-14.41-32.56-11.75-33.89-7-2.59,9.27-10.07,57.52-10.07,57.52s-36.15-60.8-55-76.41c0,0,48.65-2.83,113.23,18-3.85,36.14-12.1,81.1-29.84,120.53-5.55,12.33,4,14.18,11.09,17.57s15,10.16,26.5-12.64c1.52-3,3-6.32,4.43-9.87a545.16,545.16,0,0,0,73.7-11.62c-24.55,8-48.65,18.27-63.34,31-31.81,27.67-22,67.82-3.7,90.59,20.34,25.26,101.68,65.93,165.77,67.78s81.52-20.72,86.88-41.28c8.84-33.9-10-64.89-18.48-108.46a207.91,207.91,0,0,1-2.08-66.57c23.62,5.19,44.58,1.7,69.66-4.91,41.28-10.89,74.56-40.67,71.48-41.08-4.76-.64-62,35.12-106.61,34.92a110.08,110.08,0,0,1-31.31-4.32c8.72-26.49,17.34-41.9,33.36-58.54C7562.28,7132.9,7630.76,7094.78,7630.76,7094.78Zm-638.2,103.83c-1.05-2.84-9.29-21.26-9.29-21.26,8.78-.92,22.81-1.43,22.95.62C7006.53,7182.44,6993.05,7199.92,6992.56,7198.61Zm45.4-56.08c-1.05-4.19-5.55-39.74-5.55-39.74,14.48,3.7,39.25,2.93,49,2.46S7038.42,7144.38,7038,7142.53Zm26.8,0s45.26-30.36,55.05-37.94a15.94,15.94,0,0,0,4.21,5,20.08,20.08,0,0,0-5.65,1.2C7111.92,7113.76,7064.76,7142.53,7064.76,7142.53Zm52.89-2.92a147.61,147.61,0,0,1,12.43-18.95,19.46,19.46,0,0,0,2.77-4.53c1.71,1.14,3.61,2.36,5.76,3.71,18.69,11.71,41.49,24,41.49,24S7144.81,7136.32,7117.65,7139.61Zm122,15.69c-38.71-15-90.63-37.35-101.86-53.33-3.28-4.66,56.78,9,103.78,20.35C7241.29,7131.33,7240.74,7142.58,7239.65,7155.3Zm17.75,107.9c6.61-22.85,11.77-51.84,15.21-84.11,5.93-.73,11-7.7,11-7.7s-3.69-1.25-9.9-3.45c1-10.5,1.76-21.29,2.37-32.3a299,299,0,0,0,31.46,23.84c55.41,36.64,112.58,61.07,35.44,85.66C7297.44,7259.65,7271.24,7263,7257.4,7263.2Zm205.75,166.19c-34.76,26.52-108.25-.62-127.56-8.63-16.57-6.88-80.89-37.17-68.4-84.42,12.33-46.63,117.08-60.39,126.33-61,0,0-76.79,58.93-88.74,84.42-3.08,6.58,13.84,15.41,19.72,14.18,3.9-.83,24-36.56,79.49-40.67-.29-.29-8.31-9.1-29-4.93,0,0,47.81-45,71.48-54.23,20.54-8,2.37-17.11-3.08-21-10.48-7.4-17.25-9.25-38.82-3.08-8.2,2.34-25.88,6.1-46.56,11.53,3.9-1.4,7.72-2.88,11.43-4.45,46.09-19.48,46.76-30.39,43.14-44.37-4.31-16.63-31.84-29.47-49.3-37.89-1.48-.72-3.94-1.92-7.14-3.6,27-2.17,39.71,5.19,53.56,14.07,11.16,7.15,23.75,27.69,32.05,34.51a139.54,139.54,0,0,0,20.2,14c-3.85,22.11-1.28,49.56,4.24,76C7477.94,7365.91,7498.69,7402.27,7463.15,7429.39Z" transform="translate(-6749.46 -7010.5)"/><path class="cls-1" d="M7578,7264.65c12.89-12.7-8.42-12.12-9.86-12.12s-18.8,1.76-20.74,4.31c-12.34,16.16-38,58.54-39.24,70.87-.6,6,15.41,4.31,18.08,2.26C7528.69,7328.06,7550.45,7291.76,7578,7264.65Z" transform="translate(-6749.46 -7010.5)"/><path class="cls-1" d="M7590.71,7276.56c-4.52-2.87-13.56-3.9-17.05-1,0,0-22.37,27.3-35.54,55.87-2.41,5.23,11.54,7.33,13.36,5.34,11.19-12.28,41.64-44.69,46.21-49.51C7601.59,7283.14,7593.93,7278.61,7590.71,7276.56Z" transform="translate(-6749.46 -7010.5)"/></svg>